<svg width="166" height="32" fill="none" xmlns="http://www.w3.org/2000/svg"><path d="M42.174 27.337a10.416 10.416 0 0 1-4.877-1.25 11.359 11.359 0 0 1-3.94-3.363.801.801 0 0 1 .138-1.142l1.885-1.665a.812.812 0 0 1 .558-.209h.137a.87.87 0 0 1 .595.382 7.57 7.57 0 0 0 2.544 2.498c.99.59 2.122.9 3.275.9 1.254 0 2.196-.245 2.787-.764.58-.487.891-1.22.837-1.974a2.487 2.487 0 0 0-.906-2.115c-.733-.555-1.918-1.075-3.555-1.56-4.853-1.179-7.28-3.467-7.28-6.837 0-2.079.696-3.707 2.091-4.85 1.396-1.141 3.207-1.664 5.509-1.664a9.861 9.861 0 0 1 8.088 3.812.857.857 0 0 1-.105 1.178l-1.832 1.528a.783.783 0 0 1-.558.21h-.105a.81.81 0 0 1-.59-.347 6.546 6.546 0 0 0-2.16-1.974 5.949 5.949 0 0 0-2.755-.627 4.642 4.642 0 0 0-2.685.728 2.155 2.155 0 0 0-.906 1.805c-.037.72.274 1.415.837 1.87.664.555 1.849 1.005 3.519 1.42 2.269.627 4.044 1.455 5.334 2.533 1.36 1.178 2.059 2.815 2.059 4.886a6.04 6.04 0 0 1-1.048 3.43 6.536 6.536 0 0 1-2.83 2.324 9.12 9.12 0 0 1-4.061.837Zm18.046.068a7.718 7.718 0 0 1-4.183-1.11 7.517 7.517 0 0 1-2.859-3.052 9.034 9.034 0 0 1-1.01-4.367 8.805 8.805 0 0 1 1.01-4.331 7.55 7.55 0 0 1 2.86-3.048 8.246 8.246 0 0 1 4.145-1.11 6.85 6.85 0 0 1 3.486.864 9.409 9.409 0 0 1 2.649 2.325.857.857 0 0 1-.138 1.178l-1.532 1.206a.946.946 0 0 1-.526.177h-.138a.81.81 0 0 1-.558-.35 3.766 3.766 0 0 0-3.207-1.801 4.28 4.28 0 0 0-2.16.591 3.932 3.932 0 0 0-1.5 1.697 6.43 6.43 0 0 0 0 5.2c.321.71.842 1.312 1.5 1.733a3.63 3.63 0 0 0 2.16.587 4.093 4.093 0 0 0 2.022-.402c.57-.31 1.07-.734 1.464-1.247a.865.865 0 0 1 1.149-.173l1.642 1.142a.844.844 0 0 1 .206 1.178.032.032 0 0 1-.032.037 8.267 8.267 0 0 1-2.79 2.215 8.09 8.09 0 0 1-3.66.861Zm15.65 0a7.69 7.69 0 0 1-7.004-4.162 9.762 9.762 0 0 1 0-8.698 7.609 7.609 0 0 1 6.936-4.158 7.387 7.387 0 0 1 3.312.76c.346.176.672.386.975.627v-.072a.847.847 0 0 1 .837-.833h2.095c.46.007.83.376.837.833v14.352a.843.843 0 0 1-.837.828h-2.09a.843.843 0 0 1-.838-.828v-.036c-.316.209-.627.402-.942.59a6.768 6.768 0 0 1-3.28.797Zm-.068-13.415a4.062 4.062 0 0 0-2.127.591 4.459 4.459 0 0 0-1.5 1.697 6.046 6.046 0 0 0-.555 2.598 5.782 5.782 0 0 0 .554 2.634 4 4 0 0 0 1.5 1.733c.627.42 1.373.628 2.128.591a4.434 4.434 0 0 0 2.196-.591 3.967 3.967 0 0 0 1.496-1.733 6.4 6.4 0 0 0 0-5.196 4.15 4.15 0 0 0-1.496-1.7 3.623 3.623 0 0 0-2.196-.624ZM87.446 3.844h2.09c.46.007.831.376.838.833v21.385a.847.847 0 0 1-.837.832h-2.091a.847.847 0 0 1-.838-.832V4.677a.802.802 0 0 1 .237-.598.811.811 0 0 1 .6-.235Zm36.632 23.074a.81.81 0 0 1-.809-.587l-2.754-8.561-2.96 8.593a.809.809 0 0 1-.809.555h-2.091a.808.808 0 0 1-.809-.587L109.07 11.98a.846.846 0 0 1 .404-1.005 1.08 1.08 0 0 1 .453-.104h2.213a.808.808 0 0 1 .808.59l2.896 8.944 2.936-8.955a.862.862 0 0 1 .809-.592h2.059a.81.81 0 0 1 .809.592l2.831 8.846 2.859-8.846a.861.861 0 0 1 .809-.592h1.989c.119.01.236.035.348.073a.84.84 0 0 1 .49 1.037l-4.74 14.36a.858.858 0 0 1-.809.587l-2.156.004Zm16.21.487a7.715 7.715 0 0 1-7.005-4.162 9.788 9.788 0 0 1 0-8.698 7.614 7.614 0 0 1 6.973-4.158 7.16 7.16 0 0 1 3.275.804c.345.175.672.384.975.624v-.069a.88.88 0 0 1 .837-.868h2.128c.459.006.83.375.837.832v14.352a.844.844 0 0 1-.837.828h-2.091a.844.844 0 0 1-.838-.828v-.036a9.194 9.194 0 0 1-.942.591 7.004 7.004 0 0 1-3.312.788Zm-.032-13.415a4.062 4.062 0 0 0-2.128.591 4.435 4.435 0 0 0-1.5 1.697 5.561 5.561 0 0 0-.558 2.598c-.024.91.167 1.811.558 2.634.319.71.841 1.313 1.5 1.733a3.506 3.506 0 0 0 2.128.591 4.202 4.202 0 0 0 2.159-.59 4 4 0 0 0 1.501-1.734 6.405 6.405 0 0 0 0-5.196 3.944 3.944 0 0 0-1.501-1.7 3.514 3.514 0 0 0-2.159-.624Zm-34.336 7.87a.934.934 0 0 0-1.258.172 4.936 4.936 0 0 1-1.359 1.207 5.44 5.44 0 0 1-2.649.591 3.694 3.694 0 0 1-2.96-1.247 5.283 5.283 0 0 1-1.153-2.392h10.919a.836.836 0 0 0 .838-.764c.03-.322.041-.646.032-.97a8.247 8.247 0 0 0-1.007-4.053 7.614 7.614 0 0 0-6.766-3.989 8.043 8.043 0 0 0-4.113 1.11 7.455 7.455 0 0 0-2.831 3.052 9.426 9.426 0 0 0-1.011 4.331 9.094 9.094 0 0 0 1.01 4.367 7.795 7.795 0 0 0 2.86 3.052 8.376 8.376 0 0 0 4.182 1.106 9.017 9.017 0 0 0 4.36-1.005 8.443 8.443 0 0 0 2.543-2.184.934.934 0 0 0-.173-1.315.036.036 0 0 1-.037-.036l-1.427-1.033Zm-7.984-6.865a3.652 3.652 0 0 1 2.686-1.037c1.148 0 2.054.273 2.681.9a3.926 3.926 0 0 1 1.047 1.907h-7.579a4.583 4.583 0 0 1 1.165-1.77Zm67.414-3.743a.914.914 0 0 0-.695-.346h-1.986c-.36 0-.681.22-.809.555l-4.077 10.455-3.87-10.504a.883.883 0 0 0-.809-.518h-2.196a.811.811 0 0 0-.696.382.82.82 0 0 0-.072.804l5.678 14.907a2.212 2.212 0 0 1-.837 1.387c-.522.346-1.533.382-2.091.402a.912.912 0 0 0-.87.901v1.42a.892.892 0 0 0 .906.9c.87 0 2.301.069 3.418-.486 2.297-1.207 2.612-2.703 3.275-4.4L165.439 12a.972.972 0 0 0-.089-.748ZM11.939 23.774a1.868 1.868 0 0 1-1.885-1.85 1.867 1.867 0 0 1 1.86-1.874h2.302c.67 0 1.213-.54 1.213-1.206v-4.629c0-1.021.833-1.85 1.86-1.85 1.028 0 1.86.829 1.86 1.85v7.287a2.419 2.419 0 0 1-2.122 2.264h-5.088v.008Z" fill="#fff"/><path d="M11.939 23.673h5.08a2.302 2.302 0 0 0 2.022-2.167v-7.29c0-.967-.788-1.75-1.76-1.75-.971 0-1.759.783-1.759 1.75v4.628a1.319 1.319 0 0 1-1.314 1.307h-2.293a1.762 1.762 0 0 0-1.76 1.753v.024a1.767 1.767 0 0 0 1.784 1.745Zm-3.045-5.344a1.855 1.855 0 0 1-1.86-1.85V9.19a2.418 2.418 0 0 1 2.117-2.27h5.092a1.883 1.883 0 0 1 1.885 1.845c.005.495-.188.972-.537 1.324-.35.353-.826.552-1.324.554h-2.305c-.67 0-1.213.54-1.213 1.207v4.628c0 1.02-.83 1.848-1.856 1.85Z" fill="#fff"/><path d="M14.244 7.025h-5.08a2.297 2.297 0 0 0-2.022 2.168v7.29a1.747 1.747 0 0 0 .854 1.585 1.768 1.768 0 0 0 1.807 0c.557-.332.885-.94.854-1.585v-4.632c-.001-.347.137-.68.384-.924a1.31 1.31 0 0 1 .93-.38h2.297a1.762 1.762 0 0 0 1.76-1.748v-.025a1.787 1.787 0 0 0-1.784-1.749Z" fill="#fff"/><path d="M15.045 3.736a7.346 7.346 0 0 1 5.194 2.14 7.262 7.262 0 0 1 2.138 5.17V25.07a2.287 2.287 0 0 1-1.941 1.861H11.06a7.35 7.35 0 0 1-5.186-2.134A7.265 7.265 0 0 1 3.73 19.64V6.004A2.282 2.282 0 0 1 5.986 3.72l9.059.016ZM15.077 0H5.844C2.616.007.002 2.61 0 5.819v13.89a10.922 10.922 0 0 0 3.231 7.753 11.049 11.049 0 0 0 7.802 3.204h9.763c2.782-.223 5.012-2.383 5.31-5.143V10.938a10.915 10.915 0 0 0-3.235-7.742A11.041 11.041 0 0 0 15.078 0Z" fill="#fff"/></svg>